<svg width="21" height="20" viewBox="0 0 21 20" fill="none" xmlns="http://www.w3.org/2000/svg">
<g id="Icon / Calendar">
<g id="Union">
<path fill-rule="evenodd" clip-rule="evenodd" d="M7.16669 1.66665C7.16669 1.20641 6.79359 0.833313 6.33335 0.833313C5.87312 0.833313 5.50002 1.20641 5.50002 1.66665V2.49998H4.66669C4.00365 2.49998 3.36776 2.76337 2.89892 3.23221C2.43008 3.70105 2.16669 4.33694 2.16669 4.99998V15.8333C2.16669 16.4964 2.43008 17.1322 2.89892 17.6011C3.36776 18.0699 4.00365 18.3333 4.66669 18.3333H16.3334C16.9964 18.3333 17.6323 18.0699 18.1011 17.6011C18.57 17.1322 18.8334 16.4964 18.8334 15.8333V4.99998C18.8334 4.33694 18.57 3.70105 18.1011 3.23221C17.6323 2.76337 16.9964 2.49998 16.3334 2.49998H15.9167C15.4564 2.49998 15.0834 2.87308 15.0834 3.33331C15.0834 3.79355 15.4564 4.16665 15.9167 4.16665H16.3334C16.5544 4.16665 16.7663 4.25444 16.9226 4.41072C17.0789 4.567 17.1667 4.77897 17.1667 4.99998V7.49998H3.83335V4.99998C3.83335 4.77897 3.92115 4.567 4.07743 4.41072C4.23371 4.25444 4.44567 4.16665 4.66669 4.16665H5.50002V4.99998C5.50002 5.46022 5.87312 5.83331 6.33335 5.83331C6.79359 5.83331 7.16669 5.46022 7.16669 4.99998V1.66665ZM4.07743 16.4226C3.92115 16.2663 3.83335 16.0543 3.83335 15.8333V9.16665H17.1667V15.8333C17.1667 16.0543 17.0789 16.2663 16.9226 16.4226C16.7663 16.5788 16.5544 16.6666 16.3334 16.6666H4.66669C4.44567 16.6666 4.23371 16.5788 4.07743 16.4226Z" fill="#757575"/>
<path d="M13.8334 1.66665C13.8334 1.20641 13.4603 0.833313 13 0.833313C12.5398 0.833313 12.1667 1.20641 12.1667 1.66665V2.49998H9.25002C8.78978 2.49998 8.41669 2.87308 8.41669 3.33331C8.41669 3.79355 8.78978 4.16665 9.25002 4.16665H12.1667V4.99998C12.1667 5.46022 12.5398 5.83331 13 5.83331C13.4603 5.83331 13.8334 5.46022 13.8334 4.99998V1.66665Z" fill="#757575"/>
</g>
</g>
</svg>
