<svg width="20" height="20" viewBox="0 0 20 20" fill="none" xmlns="http://www.w3.org/2000/svg">
<g id="Icon / Help-circle" clip-path="url(#clip0_73_425)">
<g id="Union">
<path d="M8.33331 7.50004C8.33331 7.0109 8.51576 6.69807 8.75527 6.49484C9.01291 6.27624 9.38612 6.14587 9.79165 6.14587C10.1972 6.14587 10.5704 6.27624 10.828 6.49484C11.0675 6.69807 11.25 7.0109 11.25 7.50004C11.25 7.86435 11.1641 8.0666 11.0644 8.21618C10.9481 8.39069 10.795 8.5283 10.5361 8.76102L10.4842 8.80771C10.2178 9.04741 9.86745 9.37146 9.60029 9.84345C9.32496 10.3299 9.16665 10.9176 9.16665 11.6667C9.16665 12.1269 9.53974 12.5 9.99998 12.5C10.4602 12.5 10.8333 12.1269 10.8333 11.6667C10.8333 11.1658 10.9354 10.8681 11.0507 10.6644C11.1742 10.4463 11.3446 10.2756 11.5991 10.0465C11.622 10.0259 11.6462 10.0044 11.6714 9.98194C11.8991 9.77896 12.211 9.50091 12.4512 9.14068C12.7421 8.70432 12.9166 8.1774 12.9166 7.50004C12.9166 6.53085 12.5262 5.74993 11.9063 5.22399C11.3046 4.71342 10.5319 4.47921 9.79165 4.47921C9.05134 4.47921 8.27872 4.71342 7.67698 5.22399C7.05712 5.74993 6.66665 6.53085 6.66665 7.50004C6.66665 7.96028 7.03974 8.33337 7.49998 8.33337C7.96022 8.33337 8.33331 7.96028 8.33331 7.50004Z" fill="#757575"/>
<path d="M10.6249 15.5598C10.9345 15.2192 10.9094 14.6922 10.5689 14.3826C10.2283 14.073 9.70131 14.0981 9.39171 14.4386L9.38338 14.4478C9.07378 14.7883 9.09886 15.3154 9.4394 15.625C9.77994 15.9346 10.307 15.9095 10.6166 15.569L10.6249 15.5598Z" fill="#757575"/>
<path fill-rule="evenodd" clip-rule="evenodd" d="M9.99998 0.833374C4.93724 0.833374 0.833313 4.9373 0.833313 10C0.833313 15.0628 4.93724 19.1667 9.99998 19.1667C15.0627 19.1667 19.1666 15.0628 19.1666 10C19.1666 4.9373 15.0627 0.833374 9.99998 0.833374ZM2.49998 10C2.49998 5.85778 5.85772 2.50004 9.99998 2.50004C14.1422 2.50004 17.5 5.85778 17.5 10C17.5 14.1423 14.1422 17.5 9.99998 17.5C5.85772 17.5 2.49998 14.1423 2.49998 10Z" fill="#757575"/>
</g>
</g>
<defs>
<clipPath id="clip0_73_425">
<rect width="20" height="20" fill="white"/>
</clipPath>
</defs>
</svg>
