<svg width="21" height="20" viewBox="0 0 21 20" fill="none" xmlns="http://www.w3.org/2000/svg">
<g id="Icon / Home-simple-door">
<path id="Union" fill-rule="evenodd" clip-rule="evenodd" d="M10.5 2.23145C9.73863 2.23145 8.9918 2.44007 8.34064 2.83466L4.17398 5.35966C3.56126 5.73095 3.05462 6.25397 2.70301 6.87819C2.35139 7.50241 2.16668 8.20675 2.16669 8.92318V14.1665C2.16669 15.2716 2.60567 16.3314 3.38708 17.1128C4.16848 17.8942 5.22828 18.3332 6.33335 18.3332H14.6667C15.7718 18.3332 16.8316 17.8942 17.613 17.1128C18.3944 16.3314 18.8334 15.2716 18.8334 14.1665V8.92235C18.8332 8.20608 18.6484 7.50176 18.2968 6.87774C17.9452 6.25372 17.4386 5.73087 16.8261 5.35966L12.6594 2.83466C12.0082 2.44008 11.2614 2.23145 10.5 2.23145ZM9.20441 4.26003C9.5951 4.02328 10.0432 3.89811 10.5 3.89811C10.9568 3.89811 11.4049 4.02328 11.7956 4.26003L15.9623 6.78503C16.3298 7.00776 16.6338 7.32147 16.8447 7.69589C17.0557 8.07025 17.1666 8.49266 17.1667 8.92235V14.1665C17.1667 14.8296 16.9033 15.4654 16.4345 15.9343C15.9656 16.4031 15.3297 16.6665 14.6667 16.6665H13.8334V14.1665C13.8334 13.2825 13.4822 12.4346 12.857 11.8095C12.2319 11.1844 11.3841 10.8332 10.5 10.8332C9.61596 10.8332 8.76812 11.1844 8.143 11.8095C7.51788 12.4346 7.16669 13.2825 7.16669 14.1665V16.6665H6.33335C5.67031 16.6665 5.03443 16.4031 4.56559 15.9343C4.09675 15.4654 3.83335 14.8296 3.83335 14.1665V8.92318C3.83334 8.49332 3.94418 8.07069 4.15515 7.69616C4.36612 7.32163 4.67009 7.00782 5.03773 6.78504L9.20441 4.26003ZM11.6785 12.988C11.9911 13.3006 12.1667 13.7245 12.1667 14.1665V16.6665H8.83335V14.1665C8.83335 13.7245 9.00895 13.3006 9.32151 12.988C9.63407 12.6754 10.058 12.4999 10.5 12.4999C10.942 12.4999 11.366 12.6754 11.6785 12.988Z" fill="#757575"/>
</g>
</svg>
