<svg width="18" height="18" viewBox="0 0 18 18" fill="none" xmlns="http://www.w3.org/2000/svg">
<g id="&#240;&#159;&#166;&#134; icon &#34;signout&#34;">
<path id="Vector" d="M0.67 8.75C0.67 8.98206 0.779769 9.20462 0.975158 9.36872C1.17055 9.53281 1.43555 9.625 1.71187 9.625H9.61971L7.22339 11.6287C7.12574 11.7101 7.04823 11.8069 6.99534 11.9135C6.94244 12.0201 6.91521 12.1345 6.91521 12.25C6.91521 12.3655 6.94244 12.4799 6.99534 12.5865C7.04823 12.6931 7.12574 12.7899 7.22339 12.8712C7.32025 12.9533 7.43548 13.0184 7.56244 13.0628C7.68941 13.1072 7.82559 13.1301 7.96312 13.1301C8.10066 13.1301 8.23684 13.1072 8.36381 13.0628C8.49077 13.0184 8.606 12.9533 8.70286 12.8712L12.8704 9.37125C12.9652 9.28803 13.0396 9.18991 13.0892 9.0825C13.1934 8.86947 13.1934 8.63053 13.0892 8.4175C13.0396 8.31009 12.9652 8.21197 12.8704 8.12875L8.70286 4.62875C8.60571 4.54717 8.49039 4.48245 8.36347 4.4383C8.23654 4.39415 8.10051 4.37142 7.96312 4.37142C7.82574 4.37142 7.68971 4.39415 7.56278 4.4383C7.43586 4.48245 7.32054 4.54717 7.22339 4.62875C7.12625 4.71033 7.04919 4.80719 6.99662 4.91378C6.94405 5.02038 6.91699 5.13462 6.91699 5.25C6.91699 5.36538 6.94405 5.47962 6.99662 5.58622C7.04919 5.69281 7.12625 5.78967 7.22339 5.87125L9.61971 7.875H1.71187C1.43555 7.875 1.17055 7.96719 0.975158 8.13128C0.779769 8.29538 0.67 8.51794 0.67 8.75ZM14.2144 0H3.79562C2.96666 0 2.17164 0.276562 1.58547 0.768845C0.999306 1.26113 0.67 1.92881 0.67 2.625V5.25C0.67 5.48206 0.779769 5.70462 0.975158 5.86872C1.17055 6.03281 1.43555 6.125 1.71187 6.125C1.9882 6.125 2.2532 6.03281 2.44859 5.86872C2.64398 5.70462 2.75375 5.48206 2.75375 5.25V2.625C2.75375 2.39294 2.86352 2.17038 3.05891 2.00628C3.2543 1.84219 3.5193 1.75 3.79562 1.75H14.2144C14.4907 1.75 14.7557 1.84219 14.9511 2.00628C15.1465 2.17038 15.2563 2.39294 15.2563 2.625V14.875C15.2563 15.1071 15.1465 15.3296 14.9511 15.4937C14.7557 15.6578 14.4907 15.75 14.2144 15.75H3.79562C3.5193 15.75 3.2543 15.6578 3.05891 15.4937C2.86352 15.3296 2.75375 15.1071 2.75375 14.875V12.25C2.75375 12.0179 2.64398 11.7954 2.44859 11.6313C2.2532 11.4672 1.9882 11.375 1.71187 11.375C1.43555 11.375 1.17055 11.4672 0.975158 11.6313C0.779769 11.7954 0.67 12.0179 0.67 12.25V14.875C0.67 15.5712 0.999306 16.2389 1.58547 16.7312C2.17164 17.2234 2.96666 17.5 3.79562 17.5H14.2144C15.0433 17.5 15.8384 17.2234 16.4245 16.7312C17.0107 16.2389 17.34 15.5712 17.34 14.875V2.625C17.34 1.92881 17.0107 1.26113 16.4245 0.768845C15.8384 0.276562 15.0433 0 14.2144 0Z" fill="#757575"/>
</g>
</svg>
