<svg width="18" height="18" viewBox="0 0 18 18" fill="none" xmlns="http://www.w3.org/2000/svg">
<g id="&#240;&#159;&#166;&#134; icon &#34;key&#34;">
<path id="Vector" d="M17.5 6.01566C17.5 9.33799 14.8067 12.0312 11.4844 12.0312C11.1009 12.0312 10.7259 11.995 10.3624 11.9264L9.54164 12.8497C9.46467 12.9363 9.37025 13.0056 9.26457 13.053C9.15889 13.1005 9.04436 13.125 8.92852 13.125H7.65625V14.4922C7.65625 14.9452 7.28899 15.3125 6.83594 15.3125H5.46875V16.6797C5.46875 17.1327 5.10149 17.5 4.64844 17.5H0.820312C0.367261 17.5 0 17.1327 0 16.6797V14.0117C0 13.7941 0.0864404 13.5854 0.240249 13.4316L5.77059 7.90125C5.57498 7.3081 5.46875 6.6743 5.46875 6.01562C5.46875 2.69329 8.16201 3.418e-05 11.4843 3.26504e-10C14.8165 -3.41794e-05 17.5 2.68348 17.5 6.01566ZM11.4844 4.375C11.4844 5.2811 12.2189 6.01562 13.125 6.01562C14.0311 6.01562 14.7656 5.2811 14.7656 4.375C14.7656 3.4689 14.0311 2.73438 13.125 2.73438C12.2189 2.73438 11.4844 3.4689 11.4844 4.375Z" fill="#757575"/>
</g>
</svg>
