<svg width="24" height="24" viewBox="0 0 24 24" fill="none" xmlns="http://www.w3.org/2000/svg">
<g id="mingcute:menu-fill" clip-path="url(#clip0_73_403)">
<g id="Group">
<path id="Vector" d="M4 17.5C3.61478 17.5002 3.24441 17.6486 2.96561 17.9144C2.68682 18.1802 2.52099 18.5431 2.50248 18.9279C2.48396 19.3127 2.61419 19.6898 2.86617 19.9812C3.11816 20.2726 3.47258 20.4558 3.856 20.493L4 20.5H20C20.3852 20.4998 20.7556 20.3514 21.0344 20.0856C21.3132 19.8198 21.479 19.4569 21.4975 19.0721C21.516 18.6873 21.3858 18.3102 21.1338 18.0188C20.8818 17.7274 20.5274 17.5442 20.144 17.507L20 17.5H4ZM4 10.5C3.60217 10.5 3.22065 10.658 2.93934 10.9393C2.65804 11.2206 2.5 11.6022 2.5 12C2.5 12.3978 2.65804 12.7794 2.93934 13.0607C3.22065 13.342 3.60217 13.5 4 13.5H20C20.3978 13.5 20.7794 13.342 21.0607 13.0607C21.342 12.7794 21.5 12.3978 21.5 12C21.5 11.6022 21.342 11.2206 21.0607 10.9393C20.7794 10.658 20.3978 10.5 20 10.5H4ZM4 3.5C3.60217 3.5 3.22065 3.65804 2.93934 3.93934C2.65804 4.22064 2.5 4.60218 2.5 5C2.5 5.39782 2.65804 5.77936 2.93934 6.06066C3.22065 6.34196 3.60217 6.5 4 6.5H20C20.3978 6.5 20.7794 6.34196 21.0607 6.06066C21.342 5.77936 21.5 5.39782 21.5 5C21.5 4.60218 21.342 4.22064 21.0607 3.93934C20.7794 3.65804 20.3978 3.5 20 3.5H4Z" fill="#2D2840"/>
</g>
</g>
<defs>
<clipPath id="clip0_73_403">
<rect width="24" height="24" fill="white" transform="matrix(-1 0 0 1 24 0)"/>
</clipPath>
</defs>
</svg>
