<svg width="21" height="20" viewBox="0 0 21 20" fill="none" xmlns="http://www.w3.org/2000/svg">
<g id="Icon / Settings">
<g id="Union">
<path fill-rule="evenodd" clip-rule="evenodd" d="M10.5 6.66665C9.61592 6.66665 8.76808 7.01783 8.14296 7.64296C7.51783 8.26808 7.16665 9.11592 7.16665 9.99998C7.16665 10.884 7.51783 11.7319 8.14296 12.357C8.76808 12.9821 9.61592 13.3333 10.5 13.3333C11.384 13.3333 12.2319 12.9821 12.857 12.357C13.4821 11.7319 13.8333 10.884 13.8333 9.99998C13.8333 9.11592 13.4821 8.26808 12.857 7.64296C12.2319 7.01783 11.384 6.66665 10.5 6.66665ZM9.32147 8.82147C9.63403 8.50891 10.058 8.33331 10.5 8.33331C10.942 8.33331 11.3659 8.50891 11.6785 8.82147C11.9911 9.13403 12.1666 9.55795 12.1666 9.99998C12.1666 10.442 11.9911 10.8659 11.6785 11.1785C11.3659 11.4911 10.942 11.6666 10.5 11.6666C10.058 11.6666 9.63403 11.4911 9.32147 11.1785C9.00891 10.8659 8.83331 10.442 8.83331 9.99998C8.83331 9.55795 9.00891 9.13403 9.32147 8.82147Z" fill="#757575"/>
<path fill-rule="evenodd" clip-rule="evenodd" d="M9.65081 0.833313C9.27227 0.833313 8.94129 1.08845 8.84493 1.45452L8.42263 3.05885L7.08093 3.62445L6.05389 2.71071C5.72413 2.41734 5.22282 2.43196 4.91072 2.74406L3.24406 4.41072C2.94214 4.71264 2.91727 5.19392 3.18645 5.52535L4.08656 6.63361L3.53459 7.99154L1.97719 8.35513C1.60008 8.44317 1.33331 8.77939 1.33331 9.16665V10.8333C1.33331 11.2091 1.5848 11.5384 1.94733 11.6373L3.55706 12.0764L4.12418 13.4217L3.21136 14.4453C2.91735 14.775 2.9317 15.2769 3.24406 15.5892L4.91072 17.2559C5.21305 17.5582 5.69512 17.5827 6.02652 17.3126L7.13438 16.4094L8.45894 16.9543L8.85867 18.5373C8.95211 18.9074 9.28499 19.1666 9.66665 19.1666H11.3333C11.7148 19.1666 12.0476 18.9076 12.1412 18.5377L12.5419 16.954L13.9108 16.3871C14.0486 16.5026 14.2066 16.6382 14.3638 16.7751C14.52 16.9111 14.6652 17.0393 14.7714 17.1336C14.8245 17.1807 14.8677 17.2192 14.8976 17.2459L14.9429 17.2864C15.2724 17.582 15.7762 17.5689 16.0892 17.2559L17.7559 15.5892C18.0626 15.2825 18.0828 14.7918 17.8022 14.461L16.8945 13.3905L17.4562 12.0338L19.0429 11.6215C19.4102 11.5261 19.6666 11.1945 19.6666 10.815V9.16665C19.6666 8.78555 19.4081 8.453 19.0388 8.35904L17.4619 7.95785L16.9016 6.60443L17.8031 5.53794C18.0828 5.20706 18.0623 4.71707 17.7559 4.41072L16.0892 2.74406C15.7816 2.43646 15.2892 2.41721 14.9585 2.69985L13.8999 3.60471L12.4988 3.02864L12.0851 1.45479C11.9888 1.08859 11.6578 0.833313 11.2791 0.833313H9.65081ZM16.0346 14.9535L15.4645 15.5236L15.4583 15.5182C15.1505 15.2502 14.754 14.9111 14.5305 14.7512C14.2965 14.5839 13.9927 14.5492 13.7269 14.6592L11.5178 15.5742C11.2746 15.6749 11.0933 15.8846 11.0288 16.1397L10.6846 17.5H10.3157L9.97212 16.1393C9.90748 15.8833 9.72535 15.6731 9.48117 15.5726L7.3095 14.6793C7.02672 14.563 6.70294 14.6109 6.46594 14.8041L5.55693 15.5451L4.97907 14.9672L5.7186 14.1379C5.93269 13.8979 5.98949 13.556 5.86454 13.2596L4.93537 11.0554C4.83596 10.8196 4.6337 10.6425 4.3868 10.5752L2.99998 10.1969V9.82784L4.3336 9.51649C4.59706 9.45498 4.81427 9.26941 4.91614 9.01877L5.81614 6.80461C5.93061 6.523 5.88265 6.2014 5.69101 5.96544L4.95391 5.05789L5.53338 4.47842L6.36607 5.21924C6.60613 5.43282 6.9476 5.48935 7.24368 5.36454L9.44785 4.43537C9.68609 4.33494 9.86422 4.12963 9.93003 3.87961L10.2932 2.49998H10.6366L10.9924 3.85351C11.0588 4.10615 11.2398 4.31304 11.4814 4.41238L13.7373 5.33988C14.0265 5.45879 14.3579 5.40578 14.5956 5.20261L15.4556 4.46748L16.0355 5.04732L15.301 5.91619C15.0998 6.15429 15.0483 6.48482 15.1675 6.77288L16.0817 8.98122C16.1822 9.22408 16.3914 9.40528 16.6462 9.47009L18 9.81451V10.1705L16.6354 10.5251C16.3825 10.5908 16.175 10.7714 16.075 11.0129L15.16 13.2229C15.0406 13.5114 15.0924 13.8425 15.2944 14.0806L16.0346 14.9535Z" fill="#757575"/>
</g>
</g>
</svg>
