<svg width="64" height="64" viewBox="0 0 64 64" fill="none" xmlns="http://www.w3.org/2000/svg">
<g id="solar:water-sun-outline">
<path id="Vector" fill-rule="evenodd" clip-rule="evenodd" d="M32 3.33334C32.5304 3.33334 33.0391 3.54406 33.4142 3.91913C33.7893 4.2942 34 4.80291 34 5.33334V8.00001C34 8.53044 33.7893 9.03915 33.4142 9.41422C33.0391 9.7893 32.5304 10 32 10C31.4696 10 30.9608 9.7893 30.5858 9.41422C30.2107 9.03915 30 8.53044 30 8.00001V5.33334C30 4.80291 30.2107 4.2942 30.5858 3.91913C30.9608 3.54406 31.4696 3.33334 32 3.33334ZM11.7333 11.7307C12.1083 11.3561 12.6167 11.1458 13.1467 11.1458C13.6767 11.1458 14.185 11.3561 14.56 11.7307L15.608 12.776C15.9725 13.153 16.1743 13.6582 16.17 14.1826C16.1657 14.7069 15.9556 15.2087 15.585 15.5797C15.2143 15.9507 14.7128 16.1612 14.1884 16.166C13.664 16.1708 13.1587 15.9695 12.7813 15.6053L11.7307 14.5573C11.3561 14.1823 11.1457 13.674 11.1457 13.144C11.1457 12.614 11.3588 12.1057 11.7333 11.7307ZM52.2667 11.7307C52.6412 12.1057 52.8516 12.614 52.8516 13.144C52.8516 13.674 52.6412 14.1823 52.2667 14.5573L51.2213 15.6053C50.8422 15.9586 50.3407 16.151 49.8226 16.1418C49.3045 16.1327 48.8101 15.9228 48.4437 15.5563C48.0772 15.1899 47.8673 14.6955 47.8582 14.1774C47.849 13.6593 48.0414 13.1578 48.3947 12.7787L49.44 11.7307C49.815 11.3561 50.3233 11.1458 50.8533 11.1458C51.3833 11.1458 51.8917 11.3561 52.2667 11.7307ZM32 18C25.0667 18 19.3067 23.0453 18.1947 29.664C18.1512 29.9231 18.0572 30.1712 17.9179 30.394C17.7786 30.6168 17.5968 30.81 17.3829 30.9625C17.1689 31.1151 16.927 31.224 16.671 31.283C16.415 31.3421 16.1498 31.3501 15.8907 31.3067C15.6315 31.2633 15.3835 31.1692 15.1607 31.0299C14.9379 30.8906 14.7447 30.7088 14.5921 30.4949C14.4396 30.2809 14.3307 30.039 14.2717 29.783C14.2126 29.527 14.2046 29.2618 14.248 29.0027C14.959 24.809 17.1317 21.0025 20.381 18.2577C23.6304 15.5129 27.7465 14.0071 32 14.0071C36.2535 14.0071 40.3696 15.5129 43.6189 18.2577C46.8683 21.0025 49.041 24.809 49.752 29.0027C49.7954 29.2618 49.7874 29.527 49.7283 29.783C49.6693 30.039 49.5604 30.2809 49.4078 30.4949C49.2553 30.7088 49.0621 30.8906 48.8393 31.0299C48.6165 31.1692 48.3685 31.2633 48.1093 31.3067C47.8502 31.3501 47.585 31.3421 47.329 31.283C47.073 31.224 46.8311 31.1151 46.6171 30.9625C46.4032 30.81 46.2214 30.6168 46.0821 30.394C45.9428 30.1712 45.8487 29.9231 45.8053 29.664C45.2523 26.4026 43.5627 23.4421 41.0358 21.3072C38.509 19.1723 35.308 18.0007 32 18ZM3.33332 32C3.33332 31.4696 3.54403 30.9609 3.91911 30.5858C4.29418 30.2107 4.80289 30 5.33332 30H7.99999C8.53042 30 9.03913 30.2107 9.4142 30.5858C9.78927 30.9609 9.99999 31.4696 9.99999 32C9.99999 32.5304 9.78927 33.0391 9.4142 33.4142C9.03913 33.7893 8.53042 34 7.99999 34H5.33332C4.80289 34 4.29418 33.7893 3.91911 33.4142C3.54403 33.0391 3.33332 32.5304 3.33332 32ZM54 32C54 31.4696 54.2107 30.9609 54.5858 30.5858C54.9608 30.2107 55.4696 30 56 30H58.6667C59.1971 30 59.7058 30.2107 60.0809 30.5858C60.4559 30.9609 60.6667 31.4696 60.6667 32C60.6667 32.5304 60.4559 33.0391 60.0809 33.4142C59.7058 33.7893 59.1971 34 58.6667 34H56C55.4696 34 54.9608 33.7893 54.5858 33.4142C54.2107 33.0391 54 32.5304 54 32ZM12.1867 36.976C14.0187 34.112 17.9387 34.2053 19.888 36.6987C22.528 40.0773 26.2133 43.3333 32 43.3333C37.8907 43.3333 41.52 40.7227 44.0133 37.3867C45.9333 34.824 50.1093 34.4027 52.12 37.4507C53.7893 39.9707 55.5973 41.9493 59.1253 42.7787C59.3822 42.8377 59.6248 42.947 59.8393 43.1001C60.0537 43.2533 60.2358 43.4473 60.3751 43.6711C60.5143 43.8948 60.608 44.1439 60.6506 44.4039C60.6933 44.664 60.6842 44.9299 60.6237 45.1865C60.5633 45.443 60.4527 45.685 60.2985 45.8987C60.1442 46.1123 59.9492 46.2934 59.7247 46.4314C59.5002 46.5695 59.2506 46.6618 58.9903 46.7031C58.7301 46.7444 58.4642 46.7338 58.208 46.672C53.2693 45.5093 50.7227 42.584 48.784 39.656C48.7121 39.5442 48.6117 39.4536 48.4931 39.3936C48.3745 39.3336 48.242 39.3064 48.1093 39.3147C47.9346 39.32 47.7633 39.365 47.6085 39.4463C47.4538 39.5276 47.3195 39.6431 47.216 39.784C44.1067 43.9467 39.36 47.3333 32 47.3333C24.4213 47.3333 19.704 42.96 16.736 39.16C16.6607 39.0566 16.562 38.9726 16.448 38.9146C16.334 38.8567 16.2079 38.8266 16.08 38.8267C15.974 38.8279 15.8702 38.8565 15.7786 38.9098C15.687 38.9631 15.6108 39.0392 15.5573 39.1307C13.584 42.2133 11.0373 45.4373 5.79199 46.672C5.53579 46.7338 5.26991 46.7444 5.00963 46.7031C4.74934 46.6618 4.49978 46.5695 4.27529 46.4314C4.0508 46.2934 3.8558 46.1123 3.70151 45.8987C3.54722 45.685 3.43668 45.443 3.37624 45.1865C3.3158 44.9299 3.30666 44.664 3.34933 44.4039C3.392 44.1439 3.48565 43.8948 3.6249 43.6711C3.76414 43.4473 3.94624 43.2533 4.16071 43.1001C4.37519 42.947 4.61782 42.8377 4.87465 42.7787C8.61065 41.8987 10.4213 39.7387 12.1867 36.976ZM12.1867 50.3093C14.0187 47.4453 17.9387 47.5387 19.888 50.032C22.528 53.4107 26.2133 56.6667 32 56.6667C37.8907 56.6667 41.52 54.056 44.0133 50.72C45.9333 48.1547 50.1093 47.736 52.12 50.784C53.7893 53.304 55.5973 55.2827 59.1253 56.112C59.3822 56.1711 59.6248 56.2803 59.8393 56.4335C60.0537 56.5866 60.2358 56.7806 60.3751 57.0044C60.5143 57.2281 60.608 57.4772 60.6506 57.7373C60.6933 57.9973 60.6842 58.2633 60.6237 58.5198C60.5633 58.7763 60.4527 59.0184 60.2985 59.232C60.1442 59.4457 59.9492 59.6267 59.7247 59.7648C59.5002 59.9028 59.2506 59.9951 58.9903 60.0364C58.7301 60.0777 58.4642 60.0672 58.208 60.0053C53.2693 58.8427 50.7227 55.9173 48.784 52.9893C48.7121 52.8775 48.6117 52.787 48.4931 52.727C48.3745 52.667 48.242 52.6397 48.1093 52.648C47.9343 52.6536 47.7629 52.6991 47.6081 52.7808C47.4534 52.8626 47.3192 52.9786 47.216 53.12C44.1067 57.28 39.36 60.6667 32 60.6667C24.4213 60.6667 19.704 56.2933 16.736 52.4933C16.6607 52.39 16.562 52.3059 16.448 52.248C16.334 52.19 16.2079 52.1599 16.08 52.16C15.974 52.1612 15.8702 52.1898 15.7786 52.2431C15.687 52.2964 15.6108 52.3725 15.5573 52.464C13.584 55.5467 11.0373 58.7707 5.79199 60.0053C5.53579 60.0672 5.26991 60.0777 5.00963 60.0364C4.74934 59.9951 4.49978 59.9028 4.27529 59.7648C4.0508 59.6267 3.8558 59.4457 3.70151 59.232C3.54722 59.0184 3.43668 58.7763 3.37624 58.5198C3.3158 58.2633 3.30666 57.9973 3.34933 57.7373C3.392 57.4772 3.48565 57.2281 3.6249 57.0044C3.76414 56.7806 3.94624 56.5866 4.16071 56.4335C4.37519 56.2803 4.61782 56.1711 4.87465 56.112C8.61065 55.232 10.4213 53.072 12.1867 50.3093Z" fill="#699BF7"/>
</g>
</svg>
