<svg width="29" height="29" viewBox="0 0 29 29" fill="none" xmlns="http://www.w3.org/2000/svg">
<g id="solar:moon-linear">
<path id="Vector" d="M25.6771 14.5C25.6771 17.4643 24.4995 20.3073 22.4034 22.4034C20.3073 24.4995 17.4644 25.6771 14.5 25.6771V27.4896C21.6739 27.4896 27.4896 21.6739 27.4896 14.5H25.6771ZM14.5 25.6771C11.5357 25.6771 8.69274 24.4995 6.59663 22.4034C4.50052 20.3073 3.32294 17.4643 3.32294 14.5H1.51044C1.51044 21.6739 7.32615 27.4896 14.5 27.4896V25.6771ZM3.32294 14.5C3.32294 11.5356 4.50052 8.69271 6.59663 6.5966C8.69274 4.50049 11.5357 3.32291 14.5 3.32291V1.51041C7.32615 1.51041 1.51044 7.32611 1.51044 14.5H3.32294ZM18.7292 17.2187C16.8865 17.2187 15.1193 16.4867 13.8163 15.1837C12.5133 13.8808 11.7813 12.1135 11.7813 10.2708H9.96877C9.96877 12.5942 10.8917 14.8225 12.5346 16.4654C14.1775 18.1083 16.4058 19.0312 18.7292 19.0312V17.2187ZM24.6802 13.8584C24.0623 14.8841 23.1896 15.7326 22.1468 16.3215C21.104 16.9103 19.9267 17.2194 18.7292 17.2187V19.0312C20.2389 19.032 21.7232 18.6425 23.038 17.9004C24.3528 17.1583 25.4534 16.0889 26.2329 14.796L24.6802 13.8584ZM11.7813 10.2708C11.7807 9.07333 12.0899 7.89604 12.6787 6.8533C13.2675 5.81056 14.116 4.9378 15.1416 4.31978L14.204 2.76828C12.9112 3.54764 11.8418 4.64802 11.0997 5.96259C10.3577 7.27716 9.96806 8.76126 9.96877 10.2708H11.7813ZM14.5 3.32291C14.3775 3.32002 14.2611 3.26876 14.1762 3.18032C14.1243 3.12986 14.0896 3.06432 14.0771 2.99303C14.0723 2.95557 14.0747 2.84682 14.204 2.76828L15.1416 4.31978C15.7494 3.95245 15.9452 3.27941 15.8739 2.75016C15.799 2.20036 15.3664 1.51041 14.5 1.51041V3.32291ZM26.2329 14.796C26.1532 14.9253 26.0444 14.9277 26.007 14.9229C25.9357 14.9104 25.8702 14.8757 25.8197 14.8238C25.7313 14.7389 25.68 14.6225 25.6771 14.5H27.4896C27.4896 13.6336 26.7996 13.201 26.2499 13.1261C25.7206 13.0548 25.0476 13.2506 24.6802 13.8584L26.2329 14.796Z" fill="#2D2840"/>
</g>
</svg>
