<svg width="64" height="64" viewBox="0 0 64 64" fill="none" xmlns="http://www.w3.org/2000/svg">
<g id="solar:water-sun-outline">
<path id="Vector" fill-rule="evenodd" clip-rule="evenodd" d="M32 3.33334C32.5305 3.33334 33.0392 3.54406 33.4143 3.91913C33.7893 4.2942 34 4.80291 34 5.33334V8.00001C34 8.53044 33.7893 9.03915 33.4143 9.41422C33.0392 9.7893 32.5305 10 32 10C31.4696 10 30.9609 9.7893 30.5858 9.41422C30.2108 9.03915 30 8.53044 30 8.00001V5.33334C30 4.80291 30.2108 4.2942 30.5858 3.91913C30.9609 3.54406 31.4696 3.33334 32 3.33334ZM11.7334 11.7307C12.1084 11.3561 12.6167 11.1458 13.1467 11.1458C13.6767 11.1458 14.185 11.3561 14.56 11.7307L15.608 12.776C15.9725 13.153 16.1744 13.6582 16.1701 14.1826C16.1658 14.7069 15.9557 15.2087 15.585 15.5797C15.2144 15.9507 14.7128 16.1612 14.1884 16.166C13.6641 16.1708 13.1588 15.9695 12.7814 15.6053L11.7307 14.5573C11.3562 14.1823 11.1458 13.674 11.1458 13.144C11.1458 12.614 11.3588 12.1057 11.7334 11.7307ZM52.2667 11.7307C52.6413 12.1057 52.8516 12.614 52.8516 13.144C52.8516 13.674 52.6413 14.1823 52.2667 14.5573L51.2214 15.6053C50.8422 15.9586 50.3408 16.151 49.8227 16.1418C49.3045 16.1327 48.8102 15.9228 48.4437 15.5563C48.0773 15.1899 47.8674 14.6955 47.8582 14.1774C47.8491 13.6593 48.0414 13.1578 48.3947 12.7787L49.44 11.7307C49.8151 11.3561 50.3234 11.1458 50.8534 11.1458C51.3834 11.1458 51.8917 11.3561 52.2667 11.7307ZM32 18C25.0667 18 19.3067 23.0453 18.1947 29.664C18.1513 29.9231 18.0573 30.1712 17.918 30.394C17.7787 30.6168 17.5969 30.81 17.3829 30.9625C17.169 31.1151 16.9271 31.224 16.671 31.283C16.415 31.3421 16.1499 31.3501 15.8907 31.3067C15.6316 31.2633 15.3835 31.1692 15.1607 31.0299C14.9379 30.8906 14.7447 30.7088 14.5922 30.4949C14.4397 30.2809 14.3308 30.039 14.2717 29.783C14.2127 29.527 14.2046 29.2618 14.248 29.0027C14.9591 24.809 17.1317 21.0025 20.3811 18.2577C23.6304 15.5129 27.7466 14.0071 32 14.0071C36.2535 14.0071 40.3697 15.5129 43.619 18.2577C46.8683 21.0025 49.041 24.809 49.752 29.0027C49.7955 29.2618 49.7874 29.527 49.7284 29.783C49.6693 30.039 49.5604 30.2809 49.4079 30.4949C49.2554 30.7088 49.0622 30.8906 48.8394 31.0299C48.6166 31.1692 48.3685 31.2633 48.1094 31.3067C47.8502 31.3501 47.5851 31.3421 47.329 31.283C47.073 31.224 46.8311 31.1151 46.6172 30.9625C46.4032 30.81 46.2214 30.6168 46.0821 30.394C45.9428 30.1712 45.8488 29.9231 45.8054 29.664C45.2524 26.4026 43.5628 23.4421 41.0359 21.3072C38.509 19.1723 35.3081 18.0007 32 18ZM3.33338 32C3.33338 31.4696 3.54409 30.9609 3.91917 30.5858C4.29424 30.2107 4.80295 30 5.33338 30H8.00005C8.53048 30 9.03919 30.2107 9.41426 30.5858C9.78933 30.9609 10 31.4696 10 32C10 32.5304 9.78933 33.0391 9.41426 33.4142C9.03919 33.7893 8.53048 34 8.00005 34H5.33338C4.80295 34 4.29424 33.7893 3.91917 33.4142C3.54409 33.0391 3.33338 32.5304 3.33338 32ZM54 32C54 31.4696 54.2108 30.9609 54.5858 30.5858C54.9609 30.2107 55.4696 30 56 30H58.6667C59.1971 30 59.7059 30.2107 60.0809 30.5858C60.456 30.9609 60.6667 31.4696 60.6667 32C60.6667 32.5304 60.456 33.0391 60.0809 33.4142C59.7059 33.7893 59.1971 34 58.6667 34H56C55.4696 34 54.9609 33.7893 54.5858 33.4142C54.2108 33.0391 54 32.5304 54 32ZM12.1867 36.976C14.0187 34.112 17.9387 34.2053 19.888 36.6987C22.528 40.0773 26.2134 43.3333 32 43.3333C37.8907 43.3333 41.52 40.7227 44.0134 37.3867C45.9334 34.824 50.1094 34.4027 52.12 37.4507C53.7894 39.9707 55.5974 41.9493 59.1254 42.7787C59.3822 42.8377 59.6248 42.947 59.8393 43.1001C60.0538 43.2533 60.2359 43.4473 60.3751 43.6711C60.5144 43.8948 60.608 44.1439 60.6507 44.4039C60.6934 44.664 60.6842 44.9299 60.6238 45.1865C60.5634 45.443 60.4528 45.685 60.2985 45.8987C60.1442 46.1123 59.9492 46.2934 59.7247 46.4314C59.5003 46.5695 59.2507 46.6618 58.9904 46.7031C58.7301 46.7444 58.4642 46.7338 58.208 46.672C53.2694 45.5093 50.7227 42.584 48.784 39.656C48.7122 39.5442 48.6117 39.4536 48.4931 39.3936C48.3745 39.3336 48.242 39.3064 48.1094 39.3147C47.9346 39.32 47.7634 39.365 47.6086 39.4463C47.4538 39.5276 47.3196 39.6431 47.216 39.784C44.1067 43.9467 39.3601 47.3333 32 47.3333C24.4214 47.3333 19.704 42.96 16.736 39.16C16.6607 39.0566 16.5621 38.9726 16.448 38.9146C16.334 38.8567 16.2079 38.8266 16.08 38.8267C15.9741 38.8279 15.8702 38.8565 15.7787 38.9098C15.6871 38.9631 15.6108 39.0392 15.5574 39.1307C13.584 42.2133 11.0374 45.4373 5.79205 46.672C5.53586 46.7338 5.26998 46.7444 5.00969 46.7031C4.7494 46.6618 4.49984 46.5695 4.27535 46.4314C4.05086 46.2934 3.85586 46.1123 3.70157 45.8987C3.54728 45.685 3.43674 45.443 3.3763 45.1865C3.31586 44.9299 3.30672 44.664 3.34939 44.4039C3.39206 44.1439 3.48571 43.8948 3.62496 43.6711C3.7642 43.4473 3.9463 43.2533 4.16077 43.1001C4.37525 42.947 4.61788 42.8377 4.87471 42.7787C8.61071 41.8987 10.4214 39.7387 12.1867 36.976ZM12.1867 50.3093C14.0187 47.4453 17.9387 47.5387 19.888 50.032C22.528 53.4107 26.2134 56.6667 32 56.6667C37.8907 56.6667 41.52 54.056 44.0134 50.72C45.9334 48.1547 50.1094 47.736 52.12 50.784C53.7894 53.304 55.5974 55.2827 59.1254 56.112C59.3822 56.1711 59.6248 56.2803 59.8393 56.4335C60.0538 56.5866 60.2359 56.7806 60.3751 57.0044C60.5144 57.2281 60.608 57.4772 60.6507 57.7373C60.6934 57.9973 60.6842 58.2633 60.6238 58.5198C60.5634 58.7763 60.4528 59.0184 60.2985 59.232C60.1442 59.4457 59.9492 59.6267 59.7247 59.7648C59.5003 59.9028 59.2507 59.9951 58.9904 60.0364C58.7301 60.0777 58.4642 60.0672 58.208 60.0053C53.2694 58.8427 50.7227 55.9173 48.784 52.9893C48.7122 52.8775 48.6117 52.787 48.4931 52.727C48.3745 52.667 48.242 52.6397 48.1094 52.648C47.9344 52.6536 47.763 52.6991 47.6082 52.7808C47.4534 52.8626 47.3193 52.9786 47.216 53.12C44.1067 57.28 39.3601 60.6667 32 60.6667C24.4214 60.6667 19.704 56.2933 16.736 52.4933C16.6607 52.39 16.5621 52.3059 16.448 52.248C16.334 52.19 16.2079 52.1599 16.08 52.16C15.9741 52.1612 15.8702 52.1898 15.7787 52.2431C15.6871 52.2964 15.6108 52.3725 15.5574 52.464C13.584 55.5467 11.0374 58.7707 5.79205 60.0053C5.53586 60.0672 5.26998 60.0777 5.00969 60.0364C4.7494 59.9951 4.49984 59.9028 4.27535 59.7648C4.05086 59.6267 3.85586 59.4457 3.70157 59.232C3.54728 59.0184 3.43674 58.7763 3.3763 58.5198C3.31586 58.2633 3.30672 57.9973 3.34939 57.7373C3.39206 57.4772 3.48571 57.2281 3.62496 57.0044C3.7642 56.7806 3.9463 56.5866 4.16077 56.4335C4.37525 56.2803 4.61788 56.1711 4.87471 56.112C8.61071 55.232 10.4214 53.072 12.1867 50.3093Z" fill="#05F26C"/>
</g>
</svg>
