<svg width="21" height="20" viewBox="0 0 21 20" fill="none" xmlns="http://www.w3.org/2000/svg">
<g id="Icon / User 1">
<path id="Union" fill-rule="evenodd" clip-rule="evenodd" d="M10.5 2.5C9.39491 2.5 8.3351 2.93899 7.5537 3.72039C6.7723 4.50179 6.33331 5.5616 6.33331 6.66667C6.33331 7.77174 6.7723 8.83154 7.5537 9.61294C7.60867 9.66791 7.66501 9.72119 7.72265 9.77273C7.00889 10.0998 6.35179 10.5534 5.78593 11.1193C4.53569 12.3695 3.83331 14.0652 3.83331 15.8333V16.6667C3.83331 17.1269 4.20641 17.5 4.66665 17.5C5.12688 17.5 5.49998 17.1269 5.49998 16.6667V15.8333C5.49998 14.5073 6.02676 13.2355 6.96445 12.2978C7.90213 11.3601 9.1739 10.8333 10.5 10.8333C11.8261 10.8333 13.0978 11.3601 14.0355 12.2978C14.9732 13.2355 15.5 14.5073 15.5 15.8333V16.6667C15.5 17.1269 15.8731 17.5 16.3333 17.5C16.7935 17.5 17.1666 17.1269 17.1666 16.6667V15.8333C17.1666 14.0652 16.4643 12.3695 15.214 11.1193C14.6482 10.5534 13.9911 10.0998 13.2773 9.77273C13.3349 9.72119 13.3913 9.66791 13.4463 9.61294C14.2277 8.83154 14.6666 7.77174 14.6666 6.66667C14.6666 5.5616 14.2277 4.50179 13.4463 3.72039C12.6649 2.93899 11.605 2.5 10.5 2.5ZM8.73221 4.8989C9.20105 4.43006 9.83694 4.16667 10.5 4.16667C11.163 4.16667 11.7989 4.43006 12.2677 4.8989C12.7366 5.36774 13 6.00363 13 6.66667C13 7.32971 12.7366 7.96559 12.2677 8.43443C11.7989 8.90327 11.163 9.16667 10.5 9.16667C9.83694 9.16667 9.20105 8.90327 8.73221 8.43443C8.26337 7.96559 7.99998 7.32971 7.99998 6.66667C7.99998 6.00363 8.26337 5.36774 8.73221 4.8989Z" fill="#757575"/>
</g>
</svg>
