<svg width="25" height="30" viewBox="0 0 25 30" fill="none" xmlns="http://www.w3.org/2000/svg">
<path id="Vector" d="M9.72222 26.3889H15.2778C15.2778 27.9167 14.0278 29.1667 12.5 29.1667C10.9722 29.1667 9.72222 27.9167 9.72222 26.3889ZM25 23.6111V25H0V23.6111L2.77778 20.8333V12.5C2.77778 8.19444 5.55556 4.44444 9.72222 3.19444V2.77778C9.72222 1.25 10.9722 0 12.5 0C14.0278 0 15.2778 1.25 15.2778 2.77778V3.19444C19.4444 4.44444 22.2222 8.19444 22.2222 12.5V20.8333L25 23.6111ZM19.4444 12.5C19.4444 8.61111 16.3889 5.55555 12.5 5.55555C8.61111 5.55555 5.55556 8.61111 5.55556 12.5V22.2222H19.4444V12.5Z" fill="white"/>
</svg>
