<svg width="29" height="29" viewBox="0 0 29 29" fill="none" xmlns="http://www.w3.org/2000/svg">
<path id="Vector" d="M14.5 22.8375C12.851 22.8375 11.239 22.3485 9.86793 21.4324C8.49684 20.5162 7.4282 19.2141 6.79715 17.6906C6.16611 16.1671 6.001 14.4908 6.3227 12.8734C6.64441 11.2561 7.43848 9.77052 8.6045 8.6045C9.77052 7.43848 11.2561 6.64441 12.8734 6.3227C14.4908 6.001 16.1671 6.16611 17.6906 6.79715C19.2141 7.4282 20.5162 8.49684 21.4324 9.86793C22.3485 11.239 22.8375 12.851 22.8375 14.5C22.8337 16.7101 21.954 18.8285 20.3913 20.3913C18.8285 21.954 16.7101 22.8337 14.5 22.8375ZM14.5 8.3375C13.2812 8.3375 12.0897 8.69893 11.0763 9.37607C10.0629 10.0532 9.27302 11.0157 8.80659 12.1417C8.34017 13.2678 8.21813 14.5068 8.45591 15.7022C8.69369 16.8977 9.28061 17.9957 10.1425 18.8575C11.0043 19.7194 12.1023 20.3063 13.2978 20.5441C14.4932 20.7819 15.7322 20.6598 16.8583 20.1934C17.9843 19.727 18.9468 18.9371 19.6239 17.9237C20.3011 16.9103 20.6625 15.7188 20.6625 14.5C20.6587 12.8668 20.0082 11.3015 18.8533 10.1467C17.6985 8.99182 16.1332 8.34133 14.5 8.3375ZM14.5 4.35C14.2127 4.34624 13.9383 4.23046 13.7352 4.02733C13.532 3.82419 13.4163 3.54976 13.4125 3.2625V1.0875C13.4125 0.799077 13.5271 0.522467 13.731 0.318521C13.935 0.114575 14.2116 0 14.5 0C14.7884 0 15.065 0.114575 15.269 0.318521C15.4729 0.522467 15.5875 0.799077 15.5875 1.0875V3.2625C15.5837 3.54976 15.468 3.82419 15.2648 4.02733C15.0617 4.23046 14.7873 4.34624 14.5 4.35ZM14.5 29C14.2127 28.9962 13.9383 28.8805 13.7352 28.6773C13.532 28.4742 13.4163 28.1998 13.4125 27.9125V25.7375C13.4125 25.4491 13.5271 25.1725 13.731 24.9685C13.935 24.7646 14.2116 24.65 14.5 24.65C14.7884 24.65 15.065 24.7646 15.269 24.9685C15.4729 25.1725 15.5875 25.4491 15.5875 25.7375V27.9125C15.5837 28.1998 15.468 28.4742 15.2648 28.6773C15.0617 28.8805 14.7873 28.9962 14.5 29ZM27.9125 15.5875H25.7375C25.4491 15.5875 25.1725 15.4729 24.9685 15.269C24.7646 15.065 24.65 14.7884 24.65 14.5C24.65 14.2116 24.7646 13.935 24.9685 13.731C25.1725 13.5271 25.4491 13.4125 25.7375 13.4125H27.9125C28.2009 13.4125 28.4775 13.5271 28.6815 13.731C28.8854 13.935 29 14.2116 29 14.5C29 14.7884 28.8854 15.065 28.6815 15.269C28.4775 15.4729 28.2009 15.5875 27.9125 15.5875ZM3.2625 15.5875H1.0875C0.799077 15.5875 0.522467 15.4729 0.318521 15.269C0.114575 15.065 0 14.7884 0 14.5C0 14.2116 0.114575 13.935 0.318521 13.731C0.522467 13.5271 0.799077 13.4125 1.0875 13.4125H3.2625C3.55092 13.4125 3.82753 13.5271 4.03148 13.731C4.23542 13.935 4.35 14.2116 4.35 14.5C4.35 14.7884 4.23542 15.065 4.03148 15.269C3.82753 15.4729 3.55092 15.5875 3.2625 15.5875ZM6.525 7.6125C6.24523 7.59111 5.98498 7.46098 5.8 7.25L4.2195 5.8C4.11572 5.69622 4.0334 5.57302 3.97724 5.43743C3.92108 5.30184 3.89217 5.15651 3.89217 5.00975C3.89217 4.86299 3.92108 4.71766 3.97724 4.58207C4.0334 4.44648 4.11572 4.32328 4.2195 4.2195C4.32328 4.11572 4.44648 4.0334 4.58207 3.97724C4.71766 3.92108 4.86299 3.89217 5.00975 3.89217C5.15651 3.89217 5.30184 3.92108 5.43743 3.97724C5.57302 4.0334 5.69622 4.11572 5.8 4.2195L7.25 5.8C7.42833 5.99938 7.52693 6.2575 7.52693 6.525C7.52693 6.7925 7.42833 7.05062 7.25 7.25C7.06502 7.46098 6.80477 7.59111 6.525 7.6125ZM24.012 25.0995C23.8691 25.1002 23.7275 25.0723 23.5956 25.0175C23.4636 24.9627 23.3439 24.8822 23.2435 24.7805L21.75 23.2C21.6531 22.9971 21.6215 22.7691 21.6595 22.5474C21.6975 22.3258 21.8033 22.1214 21.9623 21.9623C22.1214 21.8033 22.3258 21.6975 22.5474 21.6595C22.7691 21.6215 22.9971 21.6531 23.2 21.75L24.7805 23.2C24.9842 23.4039 25.0985 23.6803 25.0985 23.9685C25.0985 24.2567 24.9842 24.5331 24.7805 24.737C24.6838 24.8466 24.5658 24.9352 24.4337 24.9976C24.3015 25.0599 24.158 25.0946 24.012 25.0995ZM22.475 7.6125C22.1952 7.59111 21.935 7.46098 21.75 7.25C21.5717 7.05062 21.4731 6.7925 21.4731 6.525C21.4731 6.2575 21.5717 5.99938 21.75 5.8L23.2 4.2195C23.4096 4.00991 23.6938 3.89217 23.9903 3.89217C24.2867 3.89217 24.5709 4.00991 24.7805 4.2195C24.9901 4.42909 25.1078 4.71335 25.1078 5.00975C25.1078 5.30615 24.9901 5.59041 24.7805 5.8L23.2 7.25C23.015 7.46098 22.7548 7.59111 22.475 7.6125ZM4.988 25.0995C4.84512 25.1002 4.70354 25.0723 4.57157 25.0175C4.4396 24.9627 4.3199 24.8822 4.2195 24.7805C4.01585 24.5766 3.90146 24.3002 3.90146 24.012C3.90146 23.7238 4.01585 23.4474 4.2195 23.2435L5.8 21.75C6.00293 21.6531 6.23092 21.6215 6.45257 21.6595C6.67422 21.6975 6.87863 21.8033 7.03765 21.9623C7.19667 22.1214 7.30248 22.3258 7.34051 22.5474C7.37854 22.7691 7.34692 22.9971 7.25 23.2L5.8 24.7805C5.69454 24.8876 5.56776 24.9713 5.42788 25.0263C5.288 25.0812 5.13814 25.1062 4.988 25.0995Z" fill="white"/>
</svg>
